<!-- SVG carré 1024x1024 — "Activer" (style BD, même charte que Observer/Structurer) -->
<svg xmlns="http://www.w3.org/2000/svg" width="1024" height="1024" viewBox="0 0 1024 1024" role="img" aria-labelledby="title desc">
  <title>Activer — visuel symbolique sans texte</title>
  <desc>Bouton “play” central, fusée en décollage, engrenages et tableau de bord : mise en production / activation.</desc>

  <!-- =================== STYLES (palette & traits) =================== -->
  <style>
    :root{
      --brand: #0f4c5c;   /* bleu pétrole */
      --brand2:#2bb4c8;   /* turquoise */
      --accent:#d8a24a;   /* ocre */
      --ink:#18343b;      /* encre sombre pour contours */
      --paper:#ffffff;    /* fond clair */
      --muted:#e6edf0;    /* gris très clair */
    }
    .stroke-ink{ stroke: var(--ink); stroke-width: 8; stroke-linecap: round; stroke-linejoin: round; }
    .stroke-ink-thick{ stroke: var(--ink); stroke-width: 12; stroke-linecap: round; stroke-linejoin: round; }
    .fill-brand{ fill: var(--brand); }
    .fill-brand2{ fill: var(--brand2); }
    .fill-accent{ fill: var(--accent); }
    .fill-paper{ fill: var(--paper); }
    .fill-muted{ fill: var(--muted); }
  </style>

  <!-- =================== DEFS (dégradés, trames, ombres) =================== -->
  <defs>
    <linearGradient id="bgGrad" x1="0" y1="0" x2="1" y2="1">
      <stop offset="0%" stop-color="#f9fdfe"></stop>
      <stop offset="100%" stop-color="#eef7f9"></stop>
    </linearGradient>
    <pattern id="halftone" width="20" height="20" patternUnits="userSpaceOnUse">
      <circle cx="3" cy="3" r="2" fill="#cfe7ec" opacity="0.5"></circle>
    </pattern>
    <filter id="softShadow" x="-20%" y="-20%" width="140%" height="140%">
      <feDropShadow dx="0" dy="6" stdDeviation="10" flood-color="#0f4c5c" flood-opacity="0.15"></feDropShadow>
    </filter>
    <filter id="glow">
      <feDropShadow dx="0" dy="0" stdDeviation="8" flood-color="#2bb4c8" flood-opacity="0.45"></feDropShadow>
    </filter>
    <radialGradient id="btnGrad" cx="50%" cy="45%" r="60%">
      <stop offset="0%" stop-color="#ffffff" stop-opacity="0.95"></stop>
      <stop offset="70%" stop-color="#dff4f7" stop-opacity="0.85"></stop>
      <stop offset="100%" stop-color="#bfe9ef" stop-opacity="0.9"></stop>
    </radialGradient>
  </defs>

  <!-- =================== ARRIÈRE-PLAN =================== -->
  <g filter="url(#softShadow)">
    <rect x="48" y="48" width="928" height="928" rx="48" fill="url(#bgGrad)"></rect>
    <!-- Vague décorative -->
    <path d="M48,720 C240,640 420,900 640,820 C820,760 880,860 976,820 L976,976 L48,976 Z" fill="#e9f8fb"></path>
    <!-- Halftone -->
    <rect x="48" y="48" width="520" height="320" fill="url(#halftone)" opacity="0.45"></rect>
  </g>

  <!-- =================== TABLEAU DE BORD (à droite) =================== -->
  <g transform="translate(620,260)" filter="url(#softShadow)">
    <rect x="0" y="0" width="300" height="240" rx="20" class="fill-paper stroke-ink-thick"></rect>
    <!-- Barres -->
    <g class="stroke-ink" fill="none" opacity="0.85">
      <line x1="24" y1="188" x2="276" y2="188" stroke="#cfe1e6" stroke-width="6"></line>
      <rect x="48" y="150" width="28" height="38" class="fill-brand"></rect>
      <rect x="96" y="120" width="28" height="68" class="fill-accent"></rect>
      <rect x="144" y="90" width="28" height="98" class="fill-brand2"></rect>
      <rect x="192" y="110" width="28" height="78" class="fill-brand"></rect>
      <rect x="240" y="70" width="28" height="118" class="fill-accent"></rect>
    </g>
    <!-- Ligne -->
    <path d="M24,136 C80,90 160,160 220,110 250,86 270,80 292,92" fill="none" stroke="#2bb4c8" stroke-width="8" class="stroke-ink" opacity="0.9"></path>
    <!-- Voyants -->
    <circle cx="36" cy="28" r="8" class="fill-accent stroke-ink"></circle>
    <circle cx="60" cy="28" r="8" class="fill-brand2 stroke-ink"></circle>
    <circle cx="84" cy="28" r="8" class="fill-brand stroke-ink"></circle>
  </g>

  <!-- =================== BOUTON "PLAY" (central) =================== -->
  <g transform="translate(256,356)" filter="url(#glow)">
    <circle cx="156" cy="156" r="136" fill="url(#btnGrad)" class="stroke-ink-thick"></circle>
    <circle cx="156" cy="156" r="156" fill="none" stroke="#2bb4c8" stroke-width="10" opacity="0.35"></circle>
    <!-- Icône play -->
    <path d="M130,110 L130,202 L206,156 Z" class="fill-brand stroke-ink-thick"></path>
    <!-- Reflets -->
    <ellipse cx="116" cy="120" rx="38" ry="16" fill="#ffffff" opacity="0.5"></ellipse>
  </g>

  <!-- =================== FUSÉE (décollage = activation) =================== -->
  <g transform="translate(460,620)">
    <!-- Flamme -->
    <path d="M64,72 C72,110 36,130 18,156 42,150 70,140 84,120 96,104 90,88 64,72 Z" class="fill-accent stroke-ink"></path>
    <!-- Fumée -->
    <g fill="#e9f1f3" stroke="#c7d7dd" stroke-width="4" opacity="0.9">
      <ellipse cx="86" cy="170" rx="34" ry="16"></ellipse>
      <ellipse cx="58" cy="184" rx="28" ry="14"></ellipse>
      <ellipse cx="116" cy="186" rx="32" ry="14"></ellipse>
    </g>
    <!-- Corps -->
    <g transform="translate(0,0)">
      <path d="M64,10 C96,10 118,48 118,86 C118,124 96,162 64,162 C32,162 10,124 10,86 C10,48 32,10 64,10 Z" class="fill-brand2 stroke-ink-thick"></path>
      <circle cx="64" cy="84" r="20" class="fill-paper stroke-ink"></circle>
      <circle cx="64" cy="84" r="10" class="fill-brand stroke-ink"></circle>
    </g>
    <!-- Ailettes -->
    <path d="M18,112 C-4,120 -10,146 10,160 24,144 32,132 40,118 Z" class="fill-brand stroke-ink"></path>
    <path d="M110,112 C132,120 138,146 118,160 104,144 96,132 88,118 Z" class="fill-brand stroke-ink"></path>
  </g>

  <!-- =================== ENGRANAGES (automatisation) =================== -->
  <g transform="translate(250,740)" filter="url(#softShadow)">
    <!-- Grand engrenage -->
    <g>
      <circle cx="0" cy="0" r="46" class="fill-muted stroke-ink"></circle>
      <g class="stroke-ink" fill="none" stroke-width="10">
        <path d="M0,-70 v-22"></path><path d="M0,70 v22"></path>
        <path d="M-62,-36 l-18,-10"></path><path d="M62,36 l18,10"></path>
        <path d="M-62,36 l-18,10"></path><path d="M62,-36 l18,-10"></path>
      </g>
      <circle cx="0" cy="0" r="16" class="fill-paper stroke-ink"></circle>
    </g>
    <!-- Petit engrenage -->
    <g transform="translate(96,-10)">
      <circle cx="0" cy="0" r="30" class="fill-brand stroke-ink"></circle>
      <g class="stroke-ink" fill="none" stroke-width="8">
        <path d="M0,-46 v-16"></path><path d="M0,46 v16"></path>
        <path d="M-34,-20 l-14,-8"></path><path d="M34,20 l14,8"></path>
        <path d="M-34,20 l-14,8"></path><path d="M34,-20 l14,-8"></path>
      </g>
      <circle cx="0" cy="0" r="10" class="fill-paper stroke-ink"></circle>
    </g>
  </g>

  <!-- =================== CONNECTEURS (du bouton vers le dashboard & la fusée) =================== -->
  <g stroke="#0f4c5c" stroke-width="10" stroke-linecap="round" stroke-linejoin="round">
    <!-- Vers dashboard -->
    <path d="M412,512 C520,512 560,470 620,460" fill="none"></path>
    <path d="M620,460 l-20,-10 v20 z" class="fill-brand"></path>
    <!-- Vers fusée -->
    <path d="M412,560 C440,590 460,600 480,620" fill="none"></path>
    <path d="M480,620 l-20,-10 v20 z" class="fill-brand"></path>
  </g>

  <!-- =================== ÉCLAIRS d’activation =================== -->
  <g fill="#ffd369" stroke="#a57f1e" stroke-width="4" stroke-linejoin="round">
    <path d="M560,640 l18,-36 -10,0 24,-44 -10,0 -22,42 10,0 z"></path>
    <path d="M720,220 l18,-36 -10,0 24,-44 -10,0 -22,42 10,0 z"></path>
  </g>

  <!-- =================== ÉTOILES BD =================== -->
  <g fill="#ffd369" opacity="0.9">
    <path d="M170,170 l10,20 22,4 -16,14 4,22 -20,-10 -20,10 4,-22 -16,-14 22,-4z"></path>
    <path d="M910,300 l8,16 18,4 -13,12 3,18 -16,-8 -16,8 3,-18 -13,-12 18,-4z"></path>
    <path d="M260,900 l8,16 18,4 -13,12 3,18 -16,-8 -16,8 3,-18 -13,-12 18,-4z" opacity="0.65"></path>
  </g>
</svg>
