<?xml version="1.0" encoding="UTF-8"?>
<svg width="800" height="400" viewBox="0 0 800 400" fill="none" xmlns="http://www.w3.org/2000/svg">
  <!-- Fond -->
  <rect width="800" height="400" rx="20" fill="#F6FAFB"/>

  <!-- Table de travail -->
  <rect x="100" y="260" width="600" height="20" rx="10" fill="#0F4C5C" opacity="0.2"/>

  <!-- Personnage gauche -->
  <circle cx="200" cy="180" r="50" fill="#D8A24A" opacity="0.9"/>
  <rect x="170" y="220" width="60" height="60" rx="8" fill="#0F4C5C"/>

  <!-- Personnage droite -->
  <circle cx="600" cy="180" r="50" fill="#2BB4C8" opacity="0.9"/>
  <rect x="570" y="220" width="60" height="60" rx="8" fill="#0F4C5C"/>

  <!-- Tableau central -->
  <rect x="320" y="80" width="160" height="120" rx="12" fill="#ffffff" stroke="#0F4C5C" stroke-width="3"/>
  <rect x="340" y="100" width="120" height="20" rx="4" fill="#D8A24A" opacity="0.8"/>
  <rect x="340" y="130" width="80" height="20" rx="4" fill="#2BB4C8" opacity="0.8"/>
  <rect x="340" y="160" width="100" height="20" rx="4" fill="#0F4C5C" opacity="0.8"/>

  <!-- Flèches de collaboration -->
  <path d="M250 180 Q400 80 550 180" stroke="#0F4C5C" stroke-width="3" fill="none" marker-end="url(#arrowhead)"/>
  <path d="M550 200 Q400 300 250 200" stroke="#0F4C5C" stroke-width="3" fill="none" marker-end="url(#arrowhead)"/>

  <defs>
    <marker id="arrowhead" markerWidth="10" markerHeight="7" 
            refX="10" refY="3.5" orient="auto">
      <polygon points="0 0, 10 3.5, 0 7" fill="#0F4C5C"/>
    </marker>
  </defs>
</svg>
