<?xml version="1.0" encoding="UTF-8"?>
<svg width="512" height="512" viewBox="0 0 512 512" fill="none" xmlns="http://www.w3.org/2000/svg">
  <!-- Fond -->
  <rect width="512" height="512" rx="24" fill="#F6FAFB"/>
  
  <!-- Table de travail -->
  <rect x="80" y="360" width="352" height="24" rx="12" fill="#0F4C5C" opacity="0.2"/>
  
  <!-- Personnage gauche -->
  <circle cx="140" cy="240" r="60" fill="#D8A24A" opacity="0.9"/>
  <rect x="110" y="290" width="60" height="60" rx="8" fill="#0F4C5C"/>
  
  <!-- Personnage droite -->
  <circle cx="372" cy="240" r="60" fill="#2BB4C8" opacity="0.9"/>
  <rect x="342" y="290" width="60" height="60" rx="8" fill="#0F4C5C"/>
  
  <!-- Tableau central -->
  <rect x="196" y="120" width="120" height="100" rx="10" fill="#ffffff" stroke="#0F4C5C" stroke-width="3"/>
  <rect x="210" y="135" width="90" height="16" rx="4" fill="#D8A24A" opacity="0.8"/>
  <rect x="210" y="160" width="70" height="16" rx="4" fill="#2BB4C8" opacity="0.8"/>
  <rect x="210" y="185" width="80" height="16" rx="4" fill="#0F4C5C" opacity="0.8"/>
  
  <!-- Flèches de collaboration -->
  <path d="M200 240 Q256 140 312 240" stroke="#0F4C5C" stroke-width="3" fill="none" marker-end="url(#arrowhead)"/>
  <path d="M312 260 Q256 340 200 260" stroke="#0F4C5C" stroke-width="3" fill="none" marker-end="url(#arrowhead)"/>
  
  <defs>
    <marker id="arrowhead" markerWidth="10" markerHeight="7" 
            refX="10" refY="3.5" orient="auto">
      <polygon points="0 0, 10 3.5, 0 7" fill="#0F4C5C"/>
    </marker>
  </defs>
</svg>
