<svg xmlns="http://www.w3.org/2000/svg" width="1024" height="1024" viewBox="0 0 1024 1024" role="img" aria-labelledby="title desc">
  <title>Observer — visuel symbolique sans texte</title>
  <desc>Loupe avec œil stylisé, arcs d’écoute, graphe de nœuds et cases cochées, style bande dessinée.</desc>

  <!-- =================== STYLES (palette & traits) =================== -->
  <style>
    :root{
      --brand: #0f4c5c;   /* bleu pétrole */
      --brand2:#2bb4c8;   /* turquoise */
      --accent:#d8a24a;   /* ocre */
      --ink:#18343b;      /* encre sombre pour contours */
      --paper:#ffffff;    /* fond clair */
      --muted:#e6edf0;    /* gris très clair */
    }
    .stroke-ink{ stroke: var(--ink); stroke-width: 8; stroke-linecap: round; stroke-linejoin: round; }
    .stroke-ink-thick{ stroke: var(--ink); stroke-width: 12; stroke-linecap: round; stroke-linejoin: round; }
    .fill-brand{ fill: var(--brand); }
    .fill-brand2{ fill: var(--brand2); }
    .fill-accent{ fill: var(--accent); }
    .fill-paper{ fill: var(--paper); }
    .fill-muted{ fill: var(--muted); }
  </style>

  <!-- =================== DEFS (dégradés, trames, ombres) =================== -->
  <defs>
    <!-- Dégradé de fond -->
    <linearGradient id="bgGrad" x1="0" y1="0" x2="1" y2="1">
      <stop offset="0%" stop-color="#f9fdfe"></stop>
      <stop offset="100%" stop-color="#eef7f9"></stop>
    </linearGradient>

    <!-- Trame points (halftone) -->
    <pattern id="halftone" width="20" height="20" patternUnits="userSpaceOnUse">
      <circle cx="3" cy="3" r="2" fill="#cfe7ec" opacity="0.5"></circle>
    </pattern>

    <!-- Ombre portée douce -->
    <filter id="softShadow" x="-20%" y="-20%" width="140%" height="140%">
      <feDropShadow dx="0" dy="6" stdDeviation="10" flood-color="#0f4c5c" flood-opacity="0.15"></feDropShadow>
    </filter>

    <!-- Lueur douce pour les éléments clés -->
    <filter id="glow">
      <feDropShadow dx="0" dy="0" stdDeviation="6" flood-color="#2bb4c8" flood-opacity="0.35"></feDropShadow>
    </filter>

    <!-- Dégradé de la lentille -->
    <radialGradient id="lensGrad" cx="50%" cy="45%" r="60%">
      <stop offset="0%" stop-color="#ffffff" stop-opacity="0.95"></stop>
      <stop offset="70%" stop-color="#dff4f7" stop-opacity="0.85"></stop>
      <stop offset="100%" stop-color="#bfe9ef" stop-opacity="0.9"></stop>
    </radialGradient>
  </defs>

  <!-- =================== ARRIÈRE-PLAN =================== -->
  <!-- Carte ronde style “BD” -->
  <g filter="url(#softShadow)">
    <rect x="48" y="48" width="928" height="928" rx="48" fill="url(#bgGrad)"></rect>
    <!-- Vague décorative turquoise -->
    <path d="M48,720 C240,640 420,900 640,820 C820,760 880,860 976,820 L976,976 L48,976 Z" fill="#e9f8fb"></path>
    <!-- Voile halftone en haut-gauche -->
    <rect x="48" y="48" width="480" height="320" fill="url(#halftone)" opacity="0.45"></rect>
  </g>

  <!-- =================== LOUPE + ŒIL (Analyser/Observer) =================== -->
  <!-- Manche de la loupe -->
  <g transform="translate(540,540) rotate(35)">
    <rect x="0" y="0" width="220" height="36" rx="18" class="fill-brand stroke-ink-thick"></rect>
    <rect x="18" y="8" width="184" height="20" rx="10" fill="#0a3a46" opacity="0.35"></rect>
  </g>

  <!-- Cercle de la loupe -->
  <g transform="translate(300,280)" filter="url(#glow)">
    <circle cx="200" cy="200" r="180" fill="url(#lensGrad)" class="stroke-ink-thick"></circle>
    <!-- Biseau intérieur -->
    <circle cx="200" cy="200" r="190" fill="none" stroke="#2bb4c8" stroke-width="10" opacity="0.35"></circle>
    <!-- Cerclage extérieur -->
    <circle cx="200" cy="200" r="210" fill="none" class="stroke-ink-thick"></circle>
    <!-- Reflets -->
    <ellipse cx="155" cy="140" rx="60" ry="26" fill="#ffffff" opacity="0.55"></ellipse>
    <ellipse cx="240" cy="110" rx="28" ry="12" fill="#ffffff" opacity="0.35"></ellipse>
  </g>

  <!-- Œil stylisé à l’intérieur de la loupe -->
  <g transform="translate(300,280)">
    <!-- Sclérotique -->
    <ellipse cx="200" cy="200" rx="120" ry="78" class="fill-paper stroke-ink-thick"></ellipse>
    <!-- Iris -->
    <circle cx="200" cy="200" r="42" class="fill-brand2 stroke-ink"></circle>
    <!-- Pupille -->
    <circle cx="200" cy="200" r="18" class="fill-ink stroke-ink" style="fill:#18343b"></circle>
    <!-- Reflet dans la pupille -->
    <circle cx="190" cy="192" r="6" fill="#ffffff" opacity="0.9"></circle>
    <!-- Cils simplifiés (haut) -->
    <path d="M110,170 C140,150 260,150 290,170" fill="none" class="stroke-ink" stroke-width="10"></path>
    <!-- Cils simplifiés (bas) -->
    <path d="M110,230 C140,250 260,250 290,230" fill="none" class="stroke-ink" stroke-width="6" opacity="0.8"></path>
  </g>

  <!-- =================== ARCS D’ÉCOUTE (Écouter les usages) =================== -->
  <g transform="translate(80,300)">
    <path d="M120,220 A140,140 0 0 1 120,20" fill="none" class="stroke-ink" stroke-width="10" opacity="0.25"></path>
    <path d="M120,220 A110,110 0 0 1 120,50" fill="none" stroke="#2bb4c8" stroke-width="10" opacity="0.55"></path>
    <path d="M120,220 A80,80 0 0 1 120,80" fill="none" class="stroke-ink" stroke-width="10" opacity="0.4"></path>
    <!-- petit disque comme “oreille” abstraite -->
    <circle cx="120" cy="220" r="14" class="fill-brand stroke-ink"></circle>
  </g>

  <!-- =================== GRAPHE (Analyser les données existantes) =================== -->
  <g transform="translate(560,140)">
    <!-- Arêtes -->
    <path d="M60,280 L220,160" class="stroke-ink" stroke-width="8" opacity="0.35"></path>
    <path d="M220,160 L340,260" class="stroke-ink" stroke-width="8" opacity="0.35"></path>
    <path d="M60,280 L160,360" class="stroke-ink" stroke-width="8" opacity="0.35"></path>
    <path d="M340,260 L420,160" class="stroke-ink" stroke-width="8" opacity="0.35"></path>
    <!-- Nœuds -->
    <circle cx="60" cy="280" r="18" class="fill-brand2 stroke-ink"></circle>
    <circle cx="220" cy="160" r="18" class="fill-accent stroke-ink"></circle>
    <circle cx="340" cy="260" r="18" class="fill-brand stroke-ink"></circle>
    <circle cx="160" cy="360" r="14" class="fill-paper stroke-ink"></circle>
    <circle cx="420" cy="160" r="14" class="fill-paper stroke-ink"></circle>
  </g>

  <!-- =================== PRIORISER (pile de cases cochées) =================== -->
  <g transform="translate(700,620)" filter="url(#softShadow)">
    <!-- Cartes -->
    <rect x="0" y="0" width="260" height="80" rx="14" class="fill-paper stroke-ink"></rect>
    <rect x="0" y="96" width="260" height="80" rx="14" class="fill-paper stroke-ink"></rect>
    <rect x="0" y="192" width="260" height="80" rx="14" class="fill-paper stroke-ink"></rect>
    <!-- Cases + coches -->
    <g transform="translate(18,18)">
      <rect x="0" y="0" width="44" height="44" rx="8" class="fill-muted stroke-ink"></rect>
      <path d="M8,22 L18,32 L36,12" fill="none" stroke="#0f4c5c" stroke-width="8" stroke-linecap="round" stroke-linejoin="round"></path>
    </g>
    <g transform="translate(18,114)">
      <rect x="0" y="0" width="44" height="44" rx="8" class="fill-muted stroke-ink"></rect>
      <path d="M8,22 L18,32 L36,12" fill="none" stroke="#0f4c5c" stroke-width="8" stroke-linecap="round" stroke-linejoin="round"></path>
    </g>
    <g transform="translate(18,210)">
      <rect x="0" y="0" width="44" height="44" rx="8" class="fill-muted stroke-ink"></rect>
      <path d="M8,22 L18,32 L36,12" fill="none" stroke="#0f4c5c" stroke-width="8" stroke-linecap="round" stroke-linejoin="round"></path>
    </g>
    <!-- Traits décoratifs façon “texte” (bande dessinée) -->
    <g stroke="#9fb7bf" stroke-linecap="round">
      <line x1="78" y1="20" x2="226" y2="20" stroke-width="8" opacity="0.9"></line>
      <line x1="78" y1="40" x2="210" y2="40" stroke-width="8" opacity="0.7"></line>
      <line x1="78" y1="116" x2="226" y2="116" stroke-width="8" opacity="0.9"></line>
      <line x1="78" y1="136" x2="210" y2="136" stroke-width="8" opacity="0.7"></line>
      <line x1="78" y1="212" x2="226" y2="212" stroke-width="8" opacity="0.9"></line>
      <line x1="78" y1="232" x2="210" y2="232" stroke-width="8" opacity="0.7"></line>
    </g>
  </g>

  <!-- =================== PETITES ÉTOILES “BD” =================== -->
  <g fill="#ffd369" opacity="0.9">
    <path d="M170,160 l10,20 22,4 -16,14 4,22 -20,-10 -20,10 4,-22 -16,-14 22,-4z"></path>
    <path d="M910,280 l8,16 18,4 -13,12 3,18 -16,-8 -16,8 3,-18 -13,-12 18,-4z"></path>
    <path d="M260,900 l8,16 18,4 -13,12 3,18 -16,-8 -16,8 3,-18 -13,-12 18,-4z" opacity="0.65"></path>
  </g>
</svg>
