<!-- SVG carré 1024x1024 — "Structurer" (style BD, même charte que "Observer") -->
<svg xmlns="http://www.w3.org/2000/svg" width="1024" height="1024" viewBox="0 0 1024 1024" role="img" aria-labelledby="title desc">
  <title>Structurer — visuel symbolique sans texte</title>
  <desc>Grille de blocs organisés, flèches de flux depuis une base de données vers des cartes, règle/équerre et engrenage pour symboliser structuration et méthode.</desc>

  <!-- =================== STYLES (palette & traits) =================== -->
  <style>
    :root{
      --brand: #0f4c5c;   /* bleu pétrole */
      --brand2:#2bb4c8;   /* turquoise */
      --accent:#d8a24a;   /* ocre */
      --ink:#18343b;      /* encre sombre pour contours */
      --paper:#ffffff;    /* fond clair */
      --muted:#e6edf0;    /* gris très clair */
    }
    .stroke-ink{ stroke: var(--ink); stroke-width: 8; stroke-linecap: round; stroke-linejoin: round; }
    .stroke-ink-thick{ stroke: var(--ink); stroke-width: 12; stroke-linecap: round; stroke-linejoin: round; }
    .fill-brand{ fill: var(--brand); }
    .fill-brand2{ fill: var(--brand2); }
    .fill-accent{ fill: var(--accent); }
    .fill-paper{ fill: var(--paper); }
    .fill-muted{ fill: var(--muted); }
  </style>

  <!-- =================== DEFS (dégradés, trames, ombres) =================== -->
  <defs>
    <linearGradient id="bgGrad" x1="0" y1="0" x2="1" y2="1">
      <stop offset="0%" stop-color="#f9fdfe"></stop>
      <stop offset="100%" stop-color="#eef7f9"></stop>
    </linearGradient>
    <pattern id="halftone" width="20" height="20" patternUnits="userSpaceOnUse">
      <circle cx="3" cy="3" r="2" fill="#cfe7ec" opacity="0.5"></circle>
    </pattern>
    <filter id="softShadow" x="-20%" y="-20%" width="140%" height="140%">
      <feDropShadow dx="0" dy="6" stdDeviation="10" flood-color="#0f4c5c" flood-opacity="0.15"></feDropShadow>
    </filter>
    <filter id="glow">
      <feDropShadow dx="0" dy="0" stdDeviation="6" flood-color="#2bb4c8" flood-opacity="0.35"></feDropShadow>
    </filter>
  </defs>

  <!-- =================== ARRIÈRE-PLAN =================== -->
  <g filter="url(#softShadow)">
    <rect x="48" y="48" width="928" height="928" rx="48" fill="url(#bgGrad)"></rect>
    <!-- Vague décorative -->
    <path d="M48,720 C240,640 420,900 640,820 C820,760 880,860 976,820 L976,976 L48,976 Z" fill="#e9f8fb"></path>
    <!-- Voile halftone en haut-gauche -->
    <rect x="48" y="48" width="520" height="300" fill="url(#halftone)" opacity="0.45"></rect>
  </g>

  <!-- =================== ÉLÉMENTS "STRUCTURER" =================== -->

  <!-- 1) Source de données (cylindre) -->
  <g transform="translate(120,420)">
    <ellipse cx="90" cy="22" rx="70" ry="22" class="fill-brand2 stroke-ink-thick"></ellipse>
    <rect x="20" y="22" width="140" height="120" class="fill-brand2 stroke-ink-thick"></rect>
    <ellipse cx="90" cy="142" rx="70" ry="22" class="fill-brand2 stroke-ink-thick"></ellipse>
    <!-- Connecteurs sortants -->
    <path d="M160,70 C240,70 260,70 320,70" fill="none" class="stroke-ink" stroke-width="10"></path>
    <path d="M160,110 C240,110 260,110 320,110" fill="none" class="stroke-ink" stroke-width="10"></path>
    <!-- Flèches -->
    <path d="M320,70 l-20,-10 v20 z" class="fill-ink"></path>
    <path d="M320,110 l-20,-10 v20 z" class="fill-ink"></path>
  </g>

  <!-- 2) Grille de blocs (organisation) -->
  <g transform="translate(380,310)">
    <!-- Cadre de grille -->
    <rect x="0" y="0" width="420" height="360" rx="22" class="fill-paper stroke-ink-thick" filter="url(#glow)"></rect>
    <!-- Quadrillage -->
    <g stroke="#cfe1e6" stroke-width="4">
      <line x1="140" y1="0" x2="140" y2="360"></line>
      <line x1="280" y1="0" x2="280" y2="360"></line>
      <line x1="0" y1="120" x2="420" y2="120"></line>
      <line x1="0" y1="240" x2="420" y2="240"></line>
    </g>
    <!-- Blocs colorés (priorisation) -->
    <rect x="16" y="16" width="108" height="90" rx="12" class="fill-accent stroke-ink"></rect>
    <rect x="156" y="16" width="108" height="90" rx="12" class="fill-brand2 stroke-ink"></rect>
    <rect x="296" y="16" width="108" height="90" rx="12" class="fill-muted stroke-ink"></rect>
    <rect x="16" y="136" width="108" height="90" rx="12" class="fill-brand stroke-ink"></rect>
    <rect x="156" y="136" width="108" height="90" rx="12" class="fill-muted stroke-ink"></rect>
    <rect x="296" y="136" width="108" height="90" rx="12" class="fill-accent stroke-ink"></rect>
    <rect x="16" y="256" width="108" height="90" rx="12" class="fill-muted stroke-ink"></rect>
    <rect x="156" y="256" width="108" height="90" rx="12" class="fill-brand stroke-ink"></rect>
    <rect x="296" y="256" width="108" height="90" rx="12" class="fill-brand2 stroke-ink"></rect>
  </g>

  <!-- 3) Cartes de spécifications (indicateurs/KPIs) -->
  <g transform="translate(820,380)">
    <rect x="0" y="0" width="120" height="90" rx="14" class="fill-paper stroke-ink"></rect>
    <rect x="0" y="106" width="120" height="90" rx="14" class="fill-paper stroke-ink"></rect>
    <rect x="0" y="212" width="120" height="90" rx="14" class="fill-paper stroke-ink"></rect>
    <!-- Cases + coches -->
    <g transform="translate(14,16)">
      <rect x="0" y="0" width="34" height="34" rx="7" class="fill-muted stroke-ink"></rect>
      <path d="M6,18 L14,26 L28,10" fill="none" stroke="#0f4c5c" stroke-width="7" stroke-linecap="round" stroke-linejoin="round"></path>
    </g>
    <g transform="translate(14,122)">
      <rect x="0" y="0" width="34" height="34" rx="7" class="fill-muted stroke-ink"></rect>
      <path d="M6,18 L14,26 L28,10" fill="none" stroke="#0f4c5c" stroke-width="7" stroke-linecap="round" stroke-linejoin="round"></path>
    </g>
    <g transform="translate(14,228)">
      <rect x="0" y="0" width="34" height="34" rx="7" class="fill-muted stroke-ink"></rect>
      <path d="M6,18 L14,26 L28,10" fill="none" stroke="#0f4c5c" stroke-width="7" stroke-linecap="round" stroke-linejoin="round"></path>
    </g>
  </g>

  <!-- 4) Outils de structuration (règle & équerre) -->
  <g transform="translate(640,720)" filter="url(#softShadow)">
    <!-- Règle -->
    <rect x="0" y="0" width="280" height="36" rx="10" class="fill-accent stroke-ink"></rect>
    <g stroke="#7f6529" stroke-linecap="round">
      <line x1="16" y1="10" x2="16" y2="26" stroke-width="4"></line>
      <line x1="36" y1="10" x2="36" y2="26" stroke-width="4"></line>
      <line x1="56" y1="10" x2="56" y2="26" stroke-width="4"></line>
      <line x1="76" y1="10" x2="76" y2="26" stroke-width="4"></line>
      <line x1="96" y1="10" x2="96" y2="26" stroke-width="4"></line>
      <line x1="116" y1="10" x2="116" y2="26" stroke-width="4"></line>
      <line x1="136" y1="10" x2="136" y2="26" stroke-width="4"></line>
      <line x1="156" y1="10" x2="156" y2="26" stroke-width="4"></line>
      <line x1="176" y1="10" x2="176" y2="26" stroke-width="4"></line>
      <line x1="196" y1="10" x2="196" y2="26" stroke-width="4"></line>
      <line x1="216" y1="10" x2="216" y2="26" stroke-width="4"></line>
      <line x1="236" y1="10" x2="236" y2="26" stroke-width="4"></line>
      <line x1="256" y1="10" x2="256" y2="26" stroke-width="4"></line>
    </g>

    <!-- Équerre -->
    <g transform="translate(220,-120) rotate(10)">
      <path d="M0,0 L120,0 L0,120 Z" class="fill-brand2 stroke-ink"></path>
      <rect x="18" y="18" width="66" height="18" rx="4" class="fill-paper stroke-ink"></rect>
    </g>

    <!-- Engrenage (processus) -->
    <g transform="translate(-120,-10)">
      <circle cx="80" cy="10" r="36" class="fill-brand stroke-ink"></circle>
      <g class="stroke-ink" fill="none" stroke-width="10">
        <path d="M80,-30 v-20"></path>
        <path d="M80,50 v20"></path>
        <path d="M26,-6 l-18,-10"></path>
        <path d="M152,26 l18,10"></path>
        <path d="M26,26 l-18,10"></path>
        <path d="M152,-6 l18,-10"></path>
      </g>
      <circle cx="80" cy="10" r="14" class="fill-paper stroke-ink"></circle>
    </g>
  </g>

  <!-- 5) Flèches de flux vers la grille -->
  <g stroke="#0f4c5c" stroke-width="10" stroke-linecap="round" stroke-linejoin="round">
    <path d="M300,490 C360,490 380,470 380,470" fill="none"></path>
    <path d="M380,470 l-18,18 l26,0 z" class="fill-brand"></path>
    <path d="M300,530 C360,530 380,550 380,550" fill="none"></path>
    <path d="M380,550 l-18,-18 l26,0 z" class="fill-brand"></path>
  </g>

  <!-- Petites étoiles “BD” -->
  <g fill="#ffd369" opacity="0.9">
    <path d="M180,180 l10,20 22,4 -16,14 4,22 -20,-10 -20,10 4,-22 -16,-14 22,-4z"></path>
    <path d="M910,300 l8,16 18,4 -13,12 3,18 -16,-8 -16,8 3,-18 -13,-12 18,-4z"></path>
    <path d="M260,900 l8,16 18,4 -13,12 3,18 -16,-8 -16,8 3,-18 -13,-12 18,-4z" opacity="0.65"></path>
  </g>
</svg>
